PathFileType	4	(X/Y/Z)	C:/Users/beibeiliu/ov580/test_trc/User1\sequence.38_training_dense_left.trc
DataRate	CameraRate	NumFrames	NumMarkers	Units	OrigDataRate	OrigDataStartFrame	OrigNumFrames
120	120	11	19	mm	120	126	500
Frame#	Time	ThumbCMC			ThumbMCP			ThumbIP			ThumbTip			IndexMCP			IndexPIP			IndexTip			MiddleMCP			MiddlePIP			MiddleTip			RingMCP			RingPIP			RingTip			PinkyMCP			PinkyPIP			PinkyTip			BackHand1			BackHand2			BackHand3	
		X0	Y0	Z0	X1	Y1	Z1	X2	Y2	Z2	X3	Y3	Z3	X4	Y4	Z4	X5	Y5	Z5	X6	Y6	Z6	X7	Y7	Z7	X8	Y8	Z8	X9	Y9	Z9	X10	Y10	Z10	X11	Y11	Z11	X12	Y12	Z12	X13	Y13	Z13	X14	Y14	Z14	X15	Y15	Z15	X16	Y16	Z16	X17	Y17	Z17	X18	Y18	Z18	
125	1.04167	-120.179	0.826894	34.8749	-91.9434	-9.45505	8.82651	-82.7558	-23.8523	-16.3391	-76.3312	-43.1408	-33.5787	-150.289	-17.566	-38.604	-142.877	-26.0243	-66.6852	-123.39	-39.0994	-88.2863	-156.853	-44.86	-45.2956	-143.181	-54.6103	-71.7538	-116.306	-63.596	-91.2799	-150.093	-70.6053	-31.4883	-127.464	-74.9933	-59.0151	-99.0487	-81.3573	-64.2218	-143.505	-88.1583	-7.75563	-132.157	-94.4316	-31.5313	-114.827	-96.8151	-51.1539	-164.557	-55.0743	26.1972	-165.21	-47.2887	58.8434	-159.585	-16.5526	36.7368	
126	1.05	-117.321	0.310343	36.7517	-93.3228	-11.4773	11.7453	-82.9907	-23.9885	-18.329	-76.8805	-42.6709	-34.2721	-149.921	-15.5315	-41.6999	-142.853	-23.3792	-66.1701	-124.43	-39.195	-88.979	-157.24	-43.245	-38.7159	-144.087	-47.832	-68.4888	-117.065	-58.4965	-87.9237	-150.972	-68.9376	-34.3487	-132.471	-74.7095	-56.1964	-106.283	-79.6327	-65.3362	-147.652	-88.2695	-7.13616	-138.83	-91.1896	-28.795	-119.525	-95.493	-50.838	-166.999	-51.3505	25.3404	-162.846	-45.5478	63.6825	-161.004	-16.8418	36.3728	
127	1.05833	-116.426	0.319611	38.8137	-88.6485	-10.2963	11.2647	-84.3688	-24.7512	-14.2529	-76.705	-43.0184	-37.9496	-149.262	-15.4643	-39.0625	-142.739	-20.7651	-63.9355	-126.965	-35.8792	-88.8252	-154.803	-37.5606	-43.3834	-139.536	-47.4759	-69.2486	-111.406	-59.9601	-86.0561	-153.018	-64.1075	-32.901	-135.948	-73.9967	-55.1093	-105.469	-77.1543	-67.3794	-150.614	-86.7593	-7.44421	-141.928	-95.3903	-28.3487	-124.179	-94.9306	-52.1028	-165.96	-47.4428	30.7714	-166.286	-43.8082	60.4156	-160.054	-16.0095	37.1373	
128	1.06667	-114.782	-0.70556	40.0736	-88.8026	-11.613	11.6006	-83.5261	-24.7716	-15.6275	-75.475	-40.3549	-34.2697	-148.711	-13.0253	-35.4021	-142.22	-20.1422	-64.9825	-128.234	-28.3586	-85.0413	-153.676	-38.7045	-43.1021	-137.899	-45.3947	-69.5883	-109.372	-60.7389	-82.0046	-153.94	-63.2571	-34.2501	-138.418	-71.2014	-55.5317	-106.901	-77.6399	-66.7228	-152.63	-81.3603	-7.2114	-144.031	-93.2607	-30.3001	-126.68	-92.5201	-55.0489	-166.042	-47.5261	28.1776	-165.931	-43.3781	63.7419	-157.563	-11.4266	41.1787	
129	1.075	-112.439	-0.566663	39.9363	-88.7449	-13.2718	11.349	-83.6641	-25.3329	-18.0564	-77.462	-39.0731	-32.5983	-146.073	-7.49716	-34.4239	-140.305	-17.003	-66.6164	-128.023	-27.2871	-85.3534	-153.935	-38.1459	-40.0233	-134.7	-44.909	-68.504	-106.603	-59.8619	-80.4719	-154.377	-61.2631	-33.1957	-138.25	-70.8347	-56.8903	-109.722	-78.0152	-66.1501	-155.067	-82.1825	-8.43985	-146.668	-88.5193	-31.4262	-132.457	-91.5457	-56.5997	-166.74	-44.8494	29.082	-165.101	-39.6409	62.7301	-154.775	-9.23596	38.7369	
130	1.08333	-111.298	-1.80482	38.7603	-87.5518	-12.8402	8.5291	-81.653	-25.5987	-17.1326	-75.1227	-39.4016	-36.5661	-144.095	-5.29206	-34.072	-140.873	-16.4295	-64.5438	-126.213	-30.4385	-87.1379	-151.472	-32.0679	-41.4801	-134.602	-42.946	-67.1931	-105.034	-57.631	-77.206	-157.343	-58.1686	-29.6972	-136.176	-65.3057	-59.3076	-108.911	-76.511	-67.8746	-155.703	-77.9076	-11.9164	-148.77	-85.0983	-31.4209	-135.971	-91.393	-55.4345	-168.946	-43.923	25.8868	-163.479	-40.7384	61.8549	-153.247	-8.73537	42.2351	
131	1.09167	-110.051	-4.05734	41.9118	-87.4534	-15.1054	11.4164	-80.1132	-24.57	-13.8691	-76.2194	-40.8312	-34.9237	-143.409	-6.04693	-36.055	-140.425	-13.6905	-61.3185	-127.949	-30.8196	-83.4354	-151.415	-31.2857	-42.7286	-132.357	-42.2827	-66.9854	-101.489	-60.9533	-74.5879	-156.175	-56.1226	-31.6896	-139.186	-67.4907	-58.3267	-113.913	-78.3501	-65.7484	-156.923	-74.0578	-11.2791	-150.375	-86.2544	-31.1062	-139.529	-93.5823	-57.4285	-167.885	-43.7465	29.3588	-164.738	-36.8313	62.3692	-152.344	-9.38398	43.3008	
132	1.1	-109.517	-3.33904	40.6574	-84.3701	-14.5647	10.1696	-80.5838	-24.5812	-16.138	-74.9739	-39.3841	-34.1925	-143.052	-6.99566	-34.3166	-139.94	-16.3049	-62.6027	-127.026	-28.337	-84.0369	-149.77	-30.6204	-43.0659	-130.816	-44.093	-66.2044	-98.0916	-61.6228	-71.9443	-155.089	-51.0859	-33.7826	-138.058	-66.0017	-58.4352	-112.807	-73.9789	-66.8102	-157.805	-72.9915	-11.5005	-150.883	-84.2176	-33.431	-140.174	-91.5078	-56.7867	-165.626	-40.456	26.4845	-163.235	-36.3298	65.8701	-152.29	-6.04938	38.3115	
133	1.10833	-107.285	-1.49541	39.7574	-84.2015	-14.1433	13.7131	-80.7917	-25.8223	-13.4816	-75.2597	-40.831	-38.1616	-142.131	-4.48993	-33.2559	-138.306	-15.8139	-61.4698	-124.499	-28.7822	-85.4314	-149.731	-30.6949	-40.9607	-128.107	-39.7978	-65.3533	-99.1149	-60.8902	-68.857	-158.708	-55.0491	-29.518	-139.684	-62.2714	-56.6866	-110.595	-74.0678	-66.233	-159.411	-76.5457	-9.75431	-154.517	-86.0592	-30.834	-143.89	-88.0936	-54.4573	-167.333	-39.6104	31.5294	-164.456	-37.4895	64.8245	-152.891	-8.428	42.2927	
134	1.11667	-108.09	-3.55677	42.6468	-88.3597	-16.9125	10.0906	-82.7301	-26.6216	-15.2406	-76.1807	-40.7632	-35.5234	-143.437	-5.82152	-33.6775	-135.675	-12.0931	-65.5339	-125.129	-29.8953	-83.2934	-148.66	-28.6136	-41.4915	-130.212	-41.4545	-64.4902	-93.5845	-56.8727	-66.3841	-158.376	-54.9464	-30.8259	-139.253	-62.8522	-58.0993	-110.796	-76.9427	-66.1263	-160.72	-77.7225	-12.9568	-153.779	-83.0442	-34.6103	-144.108	-87.0282	-57.5897	-166.205	-42.1204	26.3291	-165.534	-35.9806	60.1774	-153.527	-6.55873	39.5827	
135	1.125	-108.597	-3.01622	44.414	-86.3019	-15.5825	13.2147	-82.2552	-26.9929	-16.1132	-73.6164	-39.7952	-37.2464	-143.546	-7.23553	-37.9975	-137.976	-17.5798	-65.1421	-124.604	-32.335	-85.5532	-149.213	-30.1924	-41.0924	-128.575	-40.2854	-64.0011	-92.7514	-62.2603	-62.6006	-155.839	-51.8362	-33.799	-138.949	-66.6386	-59.4461	-111.394	-74.4543	-66.8607	-159.324	-74.7715	-8.74238	-154.813	-85.8162	-34.3952	-146.901	-90.2834	-57.3901	-166.481	-40.7647	28.3234	-166.11	-42.5347	59.8971	-153.122	-8.27698	40.3465	
